<svg width="7" height="8" viewBox="0 0 7 8" fill="none" xmlns="http://www.w3.org/2000/svg">
<g clip-path="url(#clip0_1003_55)">
<path d="M5.82672 6.79297C5.79838 6.79302 5.77031 6.78745 5.74413 6.7766C5.71795 6.76574 5.69418 6.74981 5.67419 6.72973L0.927261 1.98279C0.888505 1.942 0.867217 1.88768 0.867938 1.83142C0.868658 1.77515 0.891329 1.72139 0.931117 1.68161C0.970906 1.64182 1.02466 1.61915 1.08093 1.61843C1.13719 1.61771 1.19151 1.63899 1.23231 1.67775L5.97924 6.42468C6.00939 6.45486 6.02993 6.49329 6.03824 6.53514C6.04656 6.57698 6.04229 6.62035 6.02597 6.65976C6.00964 6.69918 5.982 6.73287 5.94654 6.75658C5.91107 6.78029 5.86938 6.79295 5.82672 6.79297V6.79297ZM3.34536 5.01085L2.64695 4.31243C2.64294 4.30846 2.6378 4.30585 2.63223 4.30495C2.62667 4.30406 2.62096 4.30493 2.61592 4.30744C2.61088 4.30996 2.60675 4.31399 2.60411 4.31897C2.60148 4.32396 2.60047 4.32964 2.60123 4.33522C2.62943 4.51642 2.7145 4.68396 2.84417 4.81362C2.97384 4.94329 3.14138 5.02837 3.32257 5.05657C3.32816 5.05733 3.33384 5.05632 3.33882 5.05368C3.34381 5.05105 3.34784 5.04692 3.35035 5.04188C3.35287 5.03683 3.35374 5.03113 3.35284 5.02556C3.35195 5.02 3.34933 5.01485 3.34536 5.01085ZM3.56113 3.39662L4.26063 4.09585C4.26462 4.09988 4.26978 4.10254 4.27537 4.10347C4.28097 4.10439 4.28671 4.10353 4.29179 4.10101C4.29686 4.09849 4.30101 4.09443 4.30365 4.08941C4.30629 4.08439 4.30728 4.07867 4.30648 4.07306C4.27836 3.89162 4.19322 3.72384 4.06339 3.59401C3.93355 3.46417 3.76577 3.37903 3.58433 3.35091C3.57871 3.35004 3.57296 3.35097 3.5679 3.35357C3.56285 3.35616 3.55874 3.36029 3.55616 3.36536C3.55359 3.37043 3.55269 3.37618 3.55358 3.3818C3.55447 3.38741 3.55712 3.3926 3.56113 3.39662V3.39662Z" fill="#313131"/>
<path d="M6.62246 4.4377C6.6671 4.36763 6.69071 4.28622 6.69047 4.20313C6.69023 4.12004 6.66616 4.03876 6.62111 3.96895C6.26428 3.41711 5.80132 2.94835 5.28239 2.61324C4.7075 2.24211 4.07368 2.0459 3.44902 2.0459C3.11972 2.04635 2.79266 2.10004 2.48049 2.20489C2.47175 2.2078 2.4639 2.21289 2.45769 2.21969C2.45148 2.22649 2.44711 2.23476 2.44501 2.24372C2.4429 2.25269 2.44312 2.26204 2.44565 2.27089C2.44817 2.27975 2.45293 2.28781 2.45945 2.2943L3.09651 2.93136C3.10313 2.93799 3.11136 2.94279 3.12039 2.94527C3.12943 2.94775 3.13895 2.94784 3.14803 2.94552C3.36396 2.8929 3.58981 2.89676 3.80383 2.95672C4.01785 3.01668 4.21282 3.13074 4.36998 3.2879C4.52714 3.44506 4.64119 3.64003 4.70116 3.85405C4.76112 4.06806 4.76498 4.29391 4.71236 4.50985C4.71006 4.51891 4.71017 4.52841 4.71265 4.53741C4.71513 4.54642 4.71991 4.55463 4.72652 4.56123L5.64286 5.47825C5.6524 5.4878 5.66516 5.49343 5.67864 5.49403C5.69213 5.49463 5.70534 5.49016 5.71568 5.48149C6.06841 5.18084 6.37407 4.829 6.62246 4.4377ZM3.45334 5.49821C3.25736 5.49822 3.06394 5.45374 2.88765 5.36812C2.71136 5.28249 2.55682 5.15796 2.43566 5.00392C2.31451 4.84987 2.22991 4.67033 2.18825 4.47883C2.14658 4.28733 2.14894 4.08887 2.19513 3.89842C2.19742 3.88936 2.19732 3.87986 2.19484 3.87085C2.19236 3.86185 2.18758 3.85364 2.18097 3.84704L1.2796 2.94525C1.27004 2.93568 1.25723 2.93005 1.24372 2.92948C1.23021 2.92891 1.21697 2.93343 1.20664 2.94215C0.877725 3.22279 0.572816 3.56424 0.294069 3.96328C0.245276 4.03331 0.218403 4.11627 0.216867 4.20161C0.21533 4.28695 0.239198 4.37082 0.285438 4.44256C0.641593 4.99992 1.09983 5.46935 1.6108 5.79988C2.1865 6.17249 2.80495 6.36129 3.44902 6.36129C3.78165 6.3604 4.11212 6.30785 4.42862 6.20553C4.43743 6.20272 4.44538 6.19768 4.45168 6.19091C4.45799 6.18413 4.46245 6.17585 4.46463 6.16686C4.46681 6.15786 4.46664 6.14846 4.46414 6.13955C4.46163 6.13064 4.45688 6.12253 4.45033 6.11599L3.81017 5.47596C3.80356 5.46935 3.79536 5.46457 3.78635 5.46209C3.77734 5.45961 3.76785 5.45951 3.75879 5.4618C3.65878 5.48603 3.55624 5.49826 3.45334 5.49821V5.49821Z" fill="#313131"/>
</g>
<defs>
<clipPath id="clip0_1003_55">
<rect width="6.90463" height="6.90463" fill="white" transform="translate(0.000976562 0.751221)"/>
</clipPath>
</defs>
</svg>
