<svg width="14" height="17" viewBox="0 0 14 17" fill="none" xmlns="http://www.w3.org/2000/svg">
<path d="M2.36689 1.92499C4.10884 0.395083 6.70968 0.0300522 8.85155 0.864792C11.9194 1.96525 13.6936 5.60751 12.8427 8.71832C12.4697 10.012 11.745 11.1608 11.0498 12.3015C10.4164 11.2118 9.52256 10.3073 8.41942 9.69263C9.31321 8.7559 9.91712 7.35751 9.30247 6.10674C8.56704 4.13128 5.66827 3.55152 4.29672 5.19416C3.00837 6.46103 3.38146 8.53312 4.57049 9.72753C3.47003 10.2617 2.62992 11.1715 2.11459 12.2747C0.89066 10.7528 -0.0890189 8.87936 0.0988646 6.86633C-0.00312927 4.96602 0.971181 3.16234 2.36689 1.92499Z" fill="#3869EB"/>
<path d="M4.5061 15.262C4.90603 13.4262 5.16101 11.5634 5.5341 9.72217C6.16753 9.72485 6.79828 9.72485 7.43172 9.72485C7.82091 11.5527 8.10005 13.402 8.47045 15.2352C7.82627 15.823 7.31362 16.7088 6.48962 17.0067C5.67903 16.6926 5.16101 15.8284 4.5061 15.262Z" fill="#3869EB"/>
</svg>
