<svg width="8" height="8" viewBox="0 0 8 8" fill="none" xmlns="http://www.w3.org/2000/svg">
<g clip-path="url(#clip0_1003_67)">
<path d="M4.4102 4.436C4.88686 4.436 5.27328 4.04958 5.27328 3.57292C5.27328 3.09625 4.88686 2.70984 4.4102 2.70984C3.93353 2.70984 3.54712 3.09625 3.54712 3.57292C3.54712 4.04958 3.93353 4.436 4.4102 4.436Z" fill="#313131"/>
<path d="M7.57711 3.33833C7.22028 2.7865 6.75732 2.31774 6.2384 1.98262C5.66431 1.6115 5.03049 1.41528 4.40557 1.41528C3.83216 1.41528 3.26833 1.57913 2.72971 1.90225C2.18044 2.2317 1.68283 2.713 1.25061 3.33267C1.20182 3.4027 1.17495 3.48565 1.17341 3.57099C1.17187 3.65633 1.19574 3.7402 1.24198 3.81194C1.59814 4.3693 2.05651 4.83874 2.56735 5.16927C3.14251 5.54188 3.7615 5.73068 4.40557 5.73068C5.03548 5.73068 5.67065 5.53608 6.24231 5.16806C6.76096 4.83402 7.22298 4.3635 7.57846 3.80709C7.62311 3.73701 7.64671 3.6556 7.64647 3.57251C7.64623 3.48942 7.62216 3.40815 7.57711 3.33833V3.33833ZM4.41015 4.8676C4.1541 4.8676 3.9038 4.79167 3.6909 4.64941C3.478 4.50716 3.31207 4.30497 3.21408 4.06841C3.1161 3.83185 3.09046 3.57154 3.14041 3.32041C3.19036 3.06928 3.31366 2.8386 3.49472 2.65755C3.67578 2.47649 3.90645 2.35319 4.15759 2.30324C4.40872 2.25328 4.66902 2.27892 4.90558 2.37691C5.14214 2.4749 5.34433 2.64083 5.48659 2.85373C5.62884 3.06663 5.70477 3.31693 5.70477 3.57298C5.70438 3.91621 5.56786 4.24528 5.32515 4.48798C5.08245 4.73068 4.75339 4.8672 4.41015 4.8676V4.8676Z" fill="#313131"/>
</g>
<defs>
<clipPath id="clip0_1003_67">
<rect width="6.90463" height="6.90463" fill="white" transform="translate(0.958008 0.120605)"/>
</clipPath>
</defs>
</svg>
