<svg width="10" height="10" viewBox="0 0 10 10" fill="none" xmlns="http://www.w3.org/2000/svg">
<g clip-path="url(#clip0_1_4118)">
<path d="M8.60119 4.56027H8.2884V4.54415H4.79356V6.09741H6.98813C6.66796 7.00161 5.80765 7.65068 4.79356 7.65068C3.50688 7.65068 2.46366 6.60747 2.46366 5.32078C2.46366 4.0341 3.50688 2.99089 4.79356 2.99089C5.38749 2.99089 5.92783 3.21494 6.33925 3.58093L7.4376 2.48258C6.74407 1.83623 5.81638 1.43762 4.79356 1.43762C2.64909 1.43762 0.9104 3.17631 0.9104 5.32078C0.9104 7.46526 2.64909 9.20394 4.79356 9.20394C6.93804 9.20394 8.67672 7.46526 8.67672 5.32078C8.67672 5.06042 8.64993 4.80626 8.60119 4.56027Z" fill="#FFC107"/>
<path d="M1.35791 3.51337L2.63372 4.44901C2.97894 3.59433 3.81498 2.99089 4.79334 2.99089C5.38727 2.99089 5.92761 3.21494 6.33903 3.58093L7.43739 2.48258C6.74385 1.83623 5.81617 1.43762 4.79334 1.43762C3.30182 1.43762 2.00834 2.27969 1.35791 3.51337Z" fill="#FF3D00"/>
<path d="M4.79365 9.20395C5.79667 9.20395 6.70805 8.8201 7.39712 8.19588L6.19528 7.17889C5.79231 7.48534 5.29991 7.65109 4.79365 7.65069C3.78364 7.65069 2.92605 7.00667 2.60297 6.10791L1.33667 7.08355C1.97933 8.34111 3.28446 9.20395 4.79365 9.20395Z" fill="#4CAF50"/>
<path d="M8.60109 4.56018H8.2883V4.54407H4.79346V6.09733H6.98802C6.83487 6.52767 6.559 6.9037 6.1945 7.17899L6.19508 7.1786L7.39692 8.1956C7.31188 8.27287 8.67662 7.26228 8.67662 5.3207C8.67662 5.06033 8.64982 4.80618 8.60109 4.56018Z" fill="#1976D2"/>
</g>
<defs>
<clipPath id="clip0_1_4118">
<rect width="9.31958" height="9.31958" fill="white" transform="translate(0.133545 0.660767)"/>
</clipPath>
</defs>
</svg>
